<mxfile host="app.diagrams.net" modified="2021-11-01T03:25:44.102Z" agent="5.0 (Macintosh; Intel Mac OS X 10_15_7) AppleWebKit/537.36 (KHTML, like Gecko) Chrome/95.0.4638.69 Safari/537.36" etag="ygD_rxy7yXYEtCqfDDvF" version="15.6.3" type="github">
  <diagram id="C7lXx-BFOw7J9pkB3zOm" name="Page-1">
    <mxGraphModel dx="1064" dy="710" grid="1" gridSize="10" guides="1" tooltips="1" connect="1" arrows="1" fold="1" page="1" pageScale="1" pageWidth="827" pageHeight="1169" math="0" shadow="0">
      <root>
        <mxCell id="0" />
        <mxCell id="1" parent="0" />
        <mxCell id="Lv3QSDaotAsP-GaVLnUd-2" value="压测" style="rounded=1;whiteSpace=wrap;html=1;fontSize=18;" vertex="1" parent="1">
          <mxGeometry x="250" y="370" width="90" height="50" as="geometry" />
        </mxCell>
        <mxCell id="Lv3QSDaotAsP-GaVLnUd-3" value="业务" style="ellipse;whiteSpace=wrap;html=1;aspect=fixed;fontSize=18;" vertex="1" parent="1">
          <mxGeometry x="414" y="240" width="80" height="80" as="geometry" />
        </mxCell>
      </root>
    </mxGraphModel>
  </diagram>
</mxfile>
